<?xml version="1.0" encoding="UTF-8"?>
<svg width="690px" height="425px" viewBox="0 0 690 425" version="1.1" xmlns="http://www.w3.org/2000/svg" xmlns:xlink="http://www.w3.org/1999/xlink">
    <!-- Generator: Sketch 53 (72520) - https://sketchapp.com -->
    <title>Group 2</title>
    <desc>Created with Sketch.</desc>
    <defs>
        <linearGradient x1="154.429938%" y1="300.941879%" x2="719.43806%" y2="0%" id="linearGradient-1">
            <stop stop-color="#973531" offset="0%"></stop>
            <stop stop-color="#1E92D5" offset="100%"></stop>
        </linearGradient>
        <linearGradient x1="154.608807%" y1="300.941879%" x2="720.584681%" y2="0%" id="linearGradient-2">
            <stop stop-color="#973531" offset="0%"></stop>
            <stop stop-color="#1E92D5" offset="100%"></stop>
        </linearGradient>
        <linearGradient x1="58.6964578%" y1="300.941879%" x2="105.747805%" y2="0%" id="linearGradient-3">
            <stop stop-color="#973531" offset="0%"></stop>
            <stop stop-color="#1E92D5" offset="100%"></stop>
        </linearGradient>
        <linearGradient x1="57.925992%" y1="300.941879%" x2="100.808808%" y2="0%" id="linearGradient-4">
            <stop stop-color="#973531" offset="0%"></stop>
            <stop stop-color="#1E92D5" offset="100%"></stop>
        </linearGradient>
        <linearGradient x1="154.628706%" y1="70.8514875%" x2="720.712244%" y2="45.8453552%" id="linearGradient-5">
            <stop stop-color="#973531" offset="0%"></stop>
            <stop stop-color="#1E92D5" offset="100%"></stop>
        </linearGradient>
        <linearGradient x1="154.628706%" y1="69.0070579%" x2="720.712244%" y2="46.2128566%" id="linearGradient-6">
            <stop stop-color="#973531" offset="0%"></stop>
            <stop stop-color="#1E92D5" offset="100%"></stop>
        </linearGradient>
        <linearGradient x1="154.628706%" y1="258.295675%" x2="720.712244%" y2="8.49722735%" id="linearGradient-7">
            <stop stop-color="#60607C" offset="0%"></stop>
            <stop stop-color="#1E92D5" offset="100%"></stop>
        </linearGradient>
        <linearGradient x1="154.628706%" y1="272.05247%" x2="720.712244%" y2="5.75619524%" id="linearGradient-8">
            <stop stop-color="#635D77" offset="0%"></stop>
            <stop stop-color="#1E92D5" offset="100%"></stop>
        </linearGradient>
        <linearGradient x1="71.7035668%" y1="300.941879%" x2="189.128625%" y2="0%" id="linearGradient-9">
            <stop stop-color="#973531" offset="0%"></stop>
            <stop stop-color="#1E92D5" offset="100%"></stop>
        </linearGradient>
        <linearGradient x1="67.2038583%" y1="300.941879%" x2="160.283677%" y2="0%" id="linearGradient-10">
            <stop stop-color="#973531" offset="0%"></stop>
            <stop stop-color="#1E92D5" offset="100%"></stop>
        </linearGradient>
    </defs>
    <g id="Page-1" stroke="none" stroke-width="1" fill="none" fill-rule="evenodd">
        <g id="Cooking_doodle_icons_kitchen_utensils_line_food_restaurant_logo" transform="translate(-228.000000, -1306.000000)">
            <g id="Group-2" transform="translate(228.491000, 1306.379515)">
                <path d="M36.7610001,197.660485 C33.1710001,200.370485 30.4680001,203.890485 28.4240001,207.880485 C27.5970001,209.490485 26.8670001,211.150485 26.1840001,212.830485 C24.7800001,209.350485 23.1430001,205.940485 20.8820001,202.950485 C18.1700001,199.360485 14.6490001,196.650485 10.6590001,194.610485 C9.04700013,193.780485 7.38600013,193.050485 5.70700013,192.370485 C9.19100013,190.960485 12.6020001,189.330485 15.5930001,187.070485 C19.1830001,184.350485 21.8860001,180.830485 23.9310001,176.840485 C24.7570001,175.230485 25.4880001,173.570485 26.1710001,171.890485 C27.5750001,175.380485 29.2120001,178.790485 31.4730001,181.780485 C34.1850001,185.370485 37.7060001,188.070485 41.6950001,190.120485 C43.3080001,190.940485 44.9680001,191.670485 46.6490001,192.360485 C43.1640001,193.760485 39.7530001,195.400485 36.7610001,197.660485 Z M51.0250001,190.800485 C45.6840001,188.830485 40.1580001,186.560485 36.0690001,182.470485 C31.9180001,178.320485 29.6360001,172.680485 27.6450001,167.270485 C27.1160001,165.830485 25.2400001,165.820485 24.7100001,167.270485 C22.7190001,172.680485 20.4370001,178.320485 16.2850001,182.470485 C12.1330001,186.620485 6.49800013,188.900485 1.08000013,190.890485 C-0.35899987,191.420485 -0.36099987,193.300485 1.08000013,193.830485 C6.49800013,195.820485 12.1330001,198.100485 16.2850001,202.250485 C20.4370001,206.410485 22.7190001,212.040485 24.7100001,217.460485 C25.2390001,218.900485 27.1150001,218.900485 27.6450001,217.460485 C29.6360001,212.040485 31.9180001,206.410485 36.0690001,202.250485 C40.1580001,198.170485 45.6850001,195.890485 51.0250001,193.920485 C51.7930001,193.900485 52.2750001,193.200485 52.3020001,192.460485 C52.3040001,192.430485 52.3040001,192.400485 52.3040001,192.370485 C52.3040001,192.330485 52.3040001,192.300485 52.3020001,192.260485 C52.2730001,191.520485 51.7920001,190.820485 51.0250001,190.800485 L51.0250001,190.800485 Z" id="Fill-97" fill="url(#linearGradient-1)"></path>
                <path d="M538.588,9.19048497 C539.882,7.07048497 542.463,5.90048497 544.915,6.39048497 C547.765,6.97048497 549.794,9.46048497 549.833,12.350485 C549.799,14.860485 548.25,17.200485 545.858,18.050485 C543.439,18.920485 540.707,18.180485 539.068,16.200485 C537.443,14.230485 537.268,11.360485 538.588,9.19048497 Z M545.254,19.880485 C548.838,19.200485 551.389,15.950485 551.437,12.350485 C551.394,9.13048497 549.399,6.26048497 546.367,5.14048497 C543.394,4.04048497 539.89,5.00048497 537.879,7.44048497 C535.827,9.94048497 535.512,13.550485 537.203,16.320485 C538.873,19.070485 542.109,20.470485 545.254,19.880485 L545.254,19.880485 Z" id="Fill-98" fill="url(#linearGradient-2)"></path>
                <path d="M562.271,388.350485 C561.136,388.400485 560.176,389.270485 560.176,390.440485 C560.176,393.890485 560.176,397.340485 560.176,400.790485 C560.176,401.880485 561.139,402.930485 562.271,402.880485 C563.406,402.830485 564.366,401.960485 564.366,400.790485 C564.366,397.340485 564.366,393.890485 564.366,390.440485 C564.366,389.350485 563.402,388.300485 562.271,388.350485" id="Fill-99" fill="url(#linearGradient-3)"></path>
                <path d="M562.271,360.820485 C561.136,360.870485 560.176,361.740485 560.176,362.920485 C560.176,366.600485 560.176,370.270485 560.176,373.950485 C560.176,375.040485 561.139,376.090485 562.271,376.040485 C563.406,375.990485 564.366,375.120485 564.366,373.950485 C564.366,370.270485 564.366,366.600485 564.366,362.920485 C564.366,361.820485 563.402,360.770485 562.271,360.820485" id="Fill-100" fill="url(#linearGradient-4)"></path>
                <path d="M553.679,379.760485 C550.232,379.760485 546.784,379.760485 543.337,379.760485 C542.241,379.760485 541.191,380.720485 541.242,381.850485 C541.293,382.990485 542.162,383.950485 543.337,383.950485 C546.784,383.950485 550.232,383.950485 553.679,383.950485 C554.775,383.950485 555.825,382.980485 555.774,381.850485 C555.723,380.720485 554.854,379.760485 553.679,379.760485" id="Fill-101" fill="url(#linearGradient-5)"></path>
                <path d="M581.205,379.760485 C577.528,379.760485 573.851,379.760485 570.174,379.760485 C569.078,379.760485 568.028,380.720485 568.079,381.850485 C568.13,382.990485 569,383.950485 570.174,383.950485 C573.851,383.950485 577.528,383.950485 581.205,383.950485 C582.301,383.950485 583.35,382.980485 583.3,381.850485 C583.249,380.720485 582.379,379.760485 581.205,379.760485" id="Fill-102" fill="url(#linearGradient-6)"></path>
                <path d="M535.046,333.640485 C507.542,374.290485 460.222,397.460485 412.954,406.150485 C328.908,421.610485 228.191,389.680485 188.02,309.510485 C183.035,299.560485 179.351,289.120485 176.56,278.360485 C159.977,211.060485 177.594,142.600485 232.706,98.530485 C281.858,59.220485 350.538,44.820485 411.834,57.140485 C480.276,70.910485 534.388,118.620485 556.15,185.090485 C572.488,234.980485 564.517,290.090485 535.046,333.640485 Z M579.272,229.970485 C576.181,149.660485 519.947,77.850485 445.207,51.250485 C380.087,28.080485 303.441,36.490485 244.571,72.570485 C182.471,110.630485 148.34,178.370485 156.844,251.030485 C158.076,261.550485 159.989,271.940485 162.524,282.230485 C186.979,376.520485 284.892,426.820485 377.219,424.370485 C425.721,423.080485 475.365,407.890485 513.805,377.700485 C557.644,343.260485 581.395,285.150485 579.272,229.970485 L579.272,229.970485 Z" id="Fill-103" fill="url(#linearGradient-7)"></path>
                <path d="M492.646,270.160485 C486.144,293.390485 471.964,314.360485 452.301,328.450485 C432.339,342.750485 407.997,350.150485 383.635,351.750485 C358.537,353.400485 332.755,349.290485 309.712,339.070485 C287.144,329.070485 267.067,313.150485 254.423,291.730485 C251.33,286.490485 248.701,280.990485 246.576,275.290485 C236.873,248.810485 235.774,219.860485 244.856,193.050485 C253.44,167.700485 270.76,145.670485 293.107,131.020485 C317.854,114.790485 347.552,108.130485 376.931,110.220485 C404.278,112.160485 430.695,121.560485 451.7,139.450485 C470.29,155.290485 483.965,176.480485 491.152,199.790485 C498.161,222.530485 499.08,247.180485 492.646,270.160485 Z M468.957,147.670485 C451.085,127.430485 426.95,113.260485 400.608,107.380485 C369.775,100.500485 336.849,102.850485 307.918,115.810485 C282.18,127.340485 260.404,147.380485 247.105,172.280485 C233.569,197.630485 229.285,227.030485 234.551,255.240485 C235.931,262.630485 237.973,269.880485 240.561,276.950485 C249.787,301.710485 267.552,321.970485 289.969,335.750485 C312.413,349.550485 338.671,356.850485 364.899,358.140485 C390.77,359.410485 417.301,354.720485 440.475,342.920485 C463.278,331.300485 481.84,312.230485 492.416,288.880485 C502.813,265.930485 505.452,240.220485 501.281,215.460485 C497.069,190.450485 485.746,166.680485 468.957,147.670485 L468.957,147.670485 Z" id="Fill-104" fill="url(#linearGradient-8)"></path>
                <path d="M146.932,117.300485 C142.007,119.010485 137.247,120.360485 134.256,125.050485 C130.33,131.210485 131.275,140.690485 130.834,147.550485 C128.238,187.930485 125.641,228.310485 123.045,268.690485 C122.157,282.490485 121.601,319.790485 98.4430001,315.080485 C77.1150001,310.750485 81.6480001,279.430485 83.1600001,264.260485 C87.7720001,217.970485 92.4400001,171.690485 97.0770001,125.400485 C97.3580001,122.590485 96.2290001,120.650485 94.4940001,119.540485 C93.3530001,118.570485 91.7920001,118.000485 89.7990001,118.120485 C68.5340001,119.400485 59.6370001,94.580485 55.5980001,77.560485 C52.8610001,66.020485 53.4840001,53.190485 55.5680001,40.670485 C56.5750001,34.620485 57.6310001,27.100485 61.0560001,21.850485 C63.8290001,17.600485 64.2440001,17.920485 68.5980001,22.430485 C75.7130001,29.790485 79.9650001,42.580485 81.2900001,52.620485 C82.4420001,61.350485 83.2930001,68.980485 92.3800001,72.500485 C97.9220001,74.650485 102.392,68.440485 101.333,63.550485 C102.054,66.880485 101.659,63.140485 101.928,61.810485 C102.592,58.540485 103.003,55.230485 103.702,51.960485 C105.317,44.410485 107.249,36.480485 111.027,29.690485 C124.202,6.01048497 133.889,55.200485 136.406,62.820485 C138.749,69.910485 147.946,69.510485 150.441,62.820485 C152.498,57.300485 154.534,51.770485 156.57,46.250485 C158.708,40.440485 160.247,30.900485 164.028,26.050485 C168.513,20.280485 172.028,27.070485 172.618,31.680485 C173.204,36.270485 173.206,41.000485 173.212,45.620485 C173.229,56.580485 172.341,67.560485 170.417,78.360485 C167.633,93.980485 163.442,111.570485 146.932,117.300485 Z M176.133,109.510485 C185.652,90.390485 187.821,66.680485 187.769,45.620485 C187.742,35.160485 188.279,21.750485 180.898,13.350485 C175.295,6.97048497 164.966,4.23048497 157.719,9.54048497 C151.425,14.150485 149.576,23.280485 147.007,30.240485 C146.216,32.380485 145.427,34.530485 144.637,36.670485 C142.077,27.620485 138.48,19.050485 131.13,13.370485 C122.445,6.66048497 111.762,6.52048497 103.945,14.630485 C98.2560001,20.530485 94.8900001,28.660485 92.5190001,36.730485 C90.7390001,31.670485 88.5020001,26.530485 86.1180001,22.050485 C82.1610001,14.600485 74.9180001,5.85048497 66.0770001,4.44048497 C48.7210001,1.66048497 43.4030001,25.210485 41.3870001,37.710485 C38.6050001,54.960485 38.3170001,71.260485 43.3420001,88.090485 C49.1160001,107.430485 60.9740001,128.960485 81.8310001,132.290485 C79.3330001,157.220485 76.8340001,182.150485 74.3350001,207.080485 C71.8000001,232.370485 67.2930001,258.320485 67.1080001,283.750485 C66.9720001,302.390485 74.4150001,323.980485 94.5730001,329.120485 C112.18,333.610485 127.226,319.660485 132.778,304.130485 C136.566,293.540485 136.757,281.800485 137.471,270.710485 C138.337,257.250485 139.202,243.790485 140.067,230.330485 C141.755,204.080485 143.443,177.840485 145.13,151.590485 C145.462,146.440485 144.046,135.330485 148.398,132.020485 C150.627,130.320485 154.894,130.210485 157.547,128.950485 C165.895,125.000485 172.072,117.660485 176.133,109.510485 L176.133,109.510485 Z" id="Fill-105" fill="url(#linearGradient-9)"></path>
                <path d="M642.191,141.430485 C641.022,147.850485 643.955,157.350485 644.661,163.880485 C645.604,172.620485 646.527,181.360485 647.441,190.100485 C650.535,219.640485 653.546,249.200485 656.82,278.730485 C658.27,291.810485 661.217,307.260485 655.094,319.630485 C648.605,332.740485 634.065,335.420485 625.18,323.620485 C618.235,314.400485 615.388,302.380485 614.041,291.150485 C612.215,275.930485 611.224,260.580485 610.445,245.270485 C608.794,212.820485 608.395,180.340485 605.939,147.930485 C605.822,146.390485 605.319,145.120485 604.574,144.080485 C604.832,141.650485 603.85,139.140485 601.035,137.570485 C565.836,118.000485 548.172,64.650485 578.359,33.180485 C594.468,16.390485 618.133,9.71048497 640.122,18.060485 C660.519,25.810485 671.357,44.280485 673.522,65.410485 C675.634,86.030485 672.746,107.080485 658.629,123.040485 C653.635,128.690485 643.581,133.800485 642.191,141.430485 Z M688.583,81.900485 C689.6,54.840485 682.025,26.600485 658.312,11.040485 C609.752,-20.829515 543.977,20.890485 548.606,77.580485 C550.967,106.500485 566.409,133.860485 591.444,148.840485 C593.795,180.340485 594.249,211.900485 595.799,243.440485 C597.08,269.490485 596.334,299.170485 608.066,323.150485 C617.402,342.230485 638.524,354.210485 657.46,339.250485 C680.921,320.710485 672.098,285.710485 669.365,260.390485 C665.198,221.770485 661.378,183.120485 657.083,144.520485 C676.367,128.090485 687.606,107.910485 688.583,81.900485 L688.583,81.900485 Z" id="Fill-106" fill="url(#linearGradient-10)"></path>
            </g>
        </g>
    </g>
</svg>